<svg width="13" height="8" viewBox="0 0 13 8" fill="none" stroke="white" xmlns="http://www.w3.org/2000/svg">
<path d="M12.8268 1.49625L6.91805 7.32894C6.86317 7.38317 6.798 7.42619 6.72627 7.45554C6.65454 7.48489 6.57765 7.5 6.5 7.5C6.42235 7.5 6.34546 7.48489 6.27373 7.45554C6.202 7.42619 6.13683 7.38317 6.08195 7.32894L0.173161 1.49625C0.0622877 1.38681 0 1.23837 0 1.08359C0 0.928814 0.0622877 0.780375 0.173161 0.67093C0.284034 0.561485 0.43441 0.5 0.591208 0.5C0.748006 0.5 0.898382 0.561485 1.00925 0.67093L6.5 6.09168L11.9907 0.67093C12.0456 0.616738 12.1108 0.573751 12.1825 0.544423C12.2543 0.515095 12.3312 0.5 12.4088 0.5C12.4864 0.5 12.5633 0.515095 12.635 0.544423C12.7068 0.573751 12.7719 0.616738 12.8268 0.67093C12.8817 0.725122 12.9253 0.789456 12.955 0.860261C12.9847 0.931066 13 1.00695 13 1.08359C13 1.16023 12.9847 1.23612 12.955 1.30692C12.9253 1.37773 12.8817 1.44206 12.8268 1.49625Z" fill="white" fill-opacity="0.5"/>
</svg>
