<svg width="9.000977" height="16.500732" viewBox="0 0 9.00098 16.5007" fill="none" xmlns="http://www.w3.org/2000/svg" xmlns:xlink="http://www.w3.org/1999/xlink">
	<desc>
			Created with Pixso.
	</desc>
	<defs/>
	<path id="Vector" d="M0.21 7.71L7.71 0.21C7.78 0.14 7.87 0.09 7.96 0.05C8.05 0.01 8.15 0 8.25 0C8.34 0 8.44 0.01 8.53 0.05C8.62 0.09 8.71 0.14 8.78 0.21C8.85 0.28 8.9 0.37 8.94 0.46C8.98 0.55 9 0.65 9 0.75C9 0.84 8.98 0.94 8.94 1.03C8.9 1.12 8.85 1.21 8.78 1.28L1.81 8.25L8.78 15.21C8.92 15.36 9 15.55 9 15.75C9 15.94 8.92 16.14 8.78 16.28C8.64 16.42 8.44 16.5 8.25 16.5C8.05 16.5 7.86 16.42 7.71 16.28L0.21 8.78C0.15 8.71 0.09 8.62 0.05 8.53C0.01 8.44 0 8.34 0 8.25C0 8.15 0.01 8.05 0.05 7.96C0.09 7.87 0.15 7.78 0.21 7.71Z" fill="#87FF7B" fill-opacity="1.000000" fill-rule="nonzero"/>
</svg>
