<svg width="52.000000" height="52.000000" viewBox="0 0 52 52" fill="none" xmlns="http://www.w3.org/2000/svg" xmlns:xlink="http://www.w3.org/1999/xlink">
	<desc>
			Created with Pixso.
	</desc>
	<defs/>
	<rect id="Google/color" rx="-0.500000" width="51.000000" height="51.000000" transform="translate(0.500000 0.500000)" fill="#FFFFFF" fill-opacity="0"/>
	<path id="back" d="M0 26C0 11.64 11.64 0 26 0C40.35 0 52 11.64 52 26C52 40.35 40.35 52 26 52C11.64 52 0 40.35 0 26Z" fill="#FFFFFF" fill-opacity="1.000000" fill-rule="nonzero"/>
	<path id="Shape" d="M26 19.08C28.11 19.08 29.54 20 30.35 20.76L33.53 17.66C31.58 15.84 29.04 14.73 26 14.73C21.59 14.73 17.78 17.26 15.93 20.94L19.57 23.77C20.49 21.05 23.02 19.08 26 19.08Z" fill="#DC1D0D" fill-opacity="1.000000" fill-rule="nonzero"/>
	<path id="Shape" d="M36.81 26.25C36.81 25.32 36.74 24.64 36.57 23.94L26 23.94L26 28.12L32.2 28.12C32.08 29.16 31.4 30.73 29.9 31.78L33.46 34.53C35.58 32.57 36.81 29.68 36.81 26.25Z" fill="#4285F4" fill-opacity="1.000000" fill-rule="nonzero"/>
	<path id="Shape" d="M19.59 28.22C19.35 27.52 19.21 26.77 19.21 25.99C19.21 25.22 19.35 24.47 19.57 23.77L15.93 20.94C15.17 22.46 14.73 24.18 14.73 25.99C14.73 27.81 15.17 29.53 15.93 31.05L19.59 28.22Z" fill="#FBBC05" fill-opacity="1.000000" fill-rule="nonzero"/>
	<path id="Shape" d="M26 37.26C29.04 37.26 31.59 36.26 33.46 34.53L29.9 31.78C28.95 32.44 27.67 32.91 26 32.91C23.02 32.91 20.49 30.94 19.59 28.22L15.94 31.05C17.8 34.73 21.59 37.26 26 37.26Z" fill="#34A853" fill-opacity="1.000000" fill-rule="nonzero"/>
</svg>
