<svg width="52.000000" height="52.000000" viewBox="0 0 52 52" fill="none" xmlns="http://www.w3.org/2000/svg" xmlns:xlink="http://www.w3.org/1999/xlink">
	<desc>
			Created with Pixso.
	</desc>
	<defs/>
	<rect id="Apple/color" rx="-0.500000" width="51.000000" height="51.000000" transform="translate(0.500000 0.500000)" fill="#FFFFFF" fill-opacity="0"/>
	<path id="back" d="M0 26C0 11.64 11.64 0 26 0C40.35 0 52 11.64 52 26C52 40.35 40.35 52 26 52C11.64 52 0 40.35 0 26Z" fill="#FFFFFF" fill-opacity="1.000000" fill-rule="nonzero"/>
	<path id="Shape" d="M31.2271 15.6265C32.2769 14.2712 33.0728 12.3555 32.7852 10.3999C31.0688 10.519 29.063 11.6172 27.8926 13.0483C26.8257 14.345 25.9487 16.2739 26.291 18.1462C28.1675 18.2048 30.1035 17.0803 31.2271 15.6265ZM38.4209 37.9246C39.3877 36.4424 39.749 35.6946 40.5 34.0212C35.0391 31.9446 34.1641 24.1812 39.5684 21.2017C37.9204 19.1343 35.604 17.936 33.4175 17.936C30.5288 17.936 29.3076 19.3181 27.3018 19.3181C25.2339 19.3181 23.6626 17.9399 21.1655 17.9399C18.7119 17.9399 16.1001 19.4392 14.4438 22.0024C12.1162 25.6123 12.5132 32.3989 16.2881 38.1802C17.6372 40.2493 19.4399 42.574 21.7979 42.5947C22.7759 42.6045 23.4272 42.3125 24.1313 41.9966C24.938 41.6348 25.8145 41.2417 27.332 41.2336C28.8584 41.2246 29.7207 41.6223 30.5166 41.9895C31.2031 42.3059 31.8394 42.5996 32.8096 42.5891C35.1689 42.5701 37.0713 39.9937 38.4209 37.9246Z" clip-rule="evenodd" fill="#0B0B0A" fill-opacity="1.000000" fill-rule="evenodd"/>
</svg>
