<svg width="30.000000" height="16.000000" viewBox="0 0 30 16" fill="none" xmlns="http://www.w3.org/2000/svg" xmlns:xlink="http://www.w3.org/1999/xlink">
	<desc>
			Created with Pixso.
	</desc>
	<defs/>
	<path id="Vector" d="M29.61 3.91C29.98 3.12 30.08 2.44 29.92 1.87C29.75 1.27 29.34 0.8 28.69 0.48C28.04 0.16 27.18 0 26.12 0C25.28 0 24.4 0.11 23.5 0.35C22.6 0.58 21.73 0.96 20.89 1.48C20.32 1.83 19.78 2.26 19.28 2.76C19.33 1.89 19.17 1.25 18.8 0.82C18.33 0.27 17.49 0 16.28 0C15.51 0 14.73 0.11 13.93 0.33C13.13 0.55 12.36 0.89 11.6 1.37C11.09 1.69 10.61 2.09 10.15 2.55L11.09 0.16L6.24 0.16L4.39 3.91L0.44 11.95L0.37 12.08L0.38 12.08C0.01 12.87 -0.09 13.55 0.07 14.12C0.24 14.72 0.65 15.19 1.3 15.51C1.95 15.83 2.81 16 3.87 16C4.71 16 5.59 15.88 6.49 15.64C7.39 15.41 8.26 15.03 9.1 14.51C9.67 14.16 10.21 13.73 10.71 13.23C10.66 14.1 10.82 14.74 11.19 15.17C11.66 15.72 12.5 16 13.71 16C14.48 16 15.26 15.88 16.06 15.66C16.86 15.44 17.63 15.1 18.39 14.62C18.9 14.3 19.38 13.9 19.84 13.44L18.9 15.83L23.75 15.83L25.6 12.08L29.55 4.04L29.62 3.91L29.61 3.91L29.61 3.91ZM10.17 12.06C9.84 12.34 9.45 12.56 9.01 12.72C8.56 12.88 8.09 12.95 7.6 12.95C6.9 12.95 6.41 12.8 6.11 12.49C5.86 12.22 5.83 11.84 6 11.37L9.13 5C9.34 4.58 9.62 4.22 9.96 3.94C10.31 3.65 10.71 3.43 11.15 3.27C11.6 3.11 12.06 3.04 12.55 3.04C13.25 3.04 13.74 3.2 14.02 3.52C14.25 3.8 14.29 4.15 14.13 4.59L10.95 11.07C10.76 11.45 10.5 11.78 10.17 12.06L10.17 12.06ZM20.03 12.05C19.68 12.34 19.28 12.56 18.84 12.72C18.39 12.88 17.93 12.95 17.44 12.95C16.74 12.95 16.25 12.79 15.97 12.47C15.74 12.19 15.7 11.84 15.86 11.4L19.04 4.92C19.23 4.54 19.49 4.21 19.82 3.93C20.15 3.65 20.54 3.43 20.98 3.27C21.43 3.11 21.9 3.04 22.39 3.04C23.09 3.04 23.58 3.19 23.88 3.51C24.13 3.77 24.16 4.15 23.99 4.63L20.86 10.99C20.65 11.41 20.37 11.77 20.03 12.05L20.03 12.05Z" fill="#87FF7B" fill-opacity="1.000000" fill-rule="nonzero"/>
</svg>
