<svg width="12.500488" height="12.500488" viewBox="0 0 12.5005 12.5005" fill="none" xmlns="http://www.w3.org/2000/svg" xmlns:xlink="http://www.w3.org/1999/xlink">
	<desc>
			Created with Pixso.
	</desc>
	<defs/>
	<path id="Vector" d="M12 0L9 0C8.86 0 8.74 0.05 8.64 0.14C8.55 0.24 8.5 0.36 8.5 0.5C8.5 0.63 8.55 0.75 8.64 0.85C8.74 0.94 8.86 1 9 1L10.79 1L8.16 3.62C7.17 2.81 5.9 2.41 4.62 2.51C3.34 2.61 2.15 3.19 1.29 4.14C0.43 5.09 -0.04 6.34 0 7.62C0.03 8.9 0.55 10.12 1.46 11.03C2.37 11.94 3.59 12.46 4.87 12.49C6.15 12.53 7.4 12.06 8.35 11.2C9.3 10.34 9.88 9.15 9.98 7.87C10.08 6.59 9.68 5.32 8.87 4.33L11.5 1.7L11.5 3.5C11.5 3.63 11.55 3.75 11.64 3.85C11.74 3.94 11.86 4 12 4C12.13 4 12.26 3.94 12.35 3.85C12.44 3.75 12.5 3.63 12.5 3.5L12.5 0.5C12.5 0.36 12.44 0.24 12.35 0.14C12.26 0.05 12.13 0 12 0ZM7.82 10.33C7.26 10.88 6.55 11.27 5.78 11.42C5 11.57 4.2 11.49 3.46 11.19C2.73 10.89 2.11 10.38 1.67 9.72C1.23 9.06 1 8.29 1 7.5C1 6.71 1.23 5.93 1.67 5.27C2.11 4.62 2.73 4.1 3.46 3.8C4.2 3.5 5 3.42 5.78 3.57C6.55 3.73 7.26 4.11 7.82 4.67C8.57 5.42 8.99 6.44 8.99 7.5C8.99 8.56 8.57 9.57 7.82 10.33Z" fill="#87FF7B" fill-opacity="1.000000" fill-rule="nonzero"/>
</svg>
