<svg width="10.000000" height="14.500000" viewBox="0 0 10 14.5" fill="none" xmlns="http://www.w3.org/2000/svg" xmlns:xlink="http://www.w3.org/1999/xlink">
	<desc>
			Created with Pixso.
	</desc>
	<defs/>
	<path id="Vector" d="M10 5C10 4.03 9.71 3.08 9.19 2.27C8.66 1.46 7.91 0.82 7.02 0.42C6.14 0.03 5.16 -0.1 4.2 0.06C3.25 0.21 2.36 0.64 1.64 1.29C0.92 1.94 0.41 2.78 0.16 3.71C-0.09 4.65 -0.06 5.64 0.25 6.56C0.55 7.48 1.11 8.29 1.86 8.89C2.62 9.5 3.53 9.87 4.5 9.97L4.5 11.5L2.5 11.5C2.36 11.5 2.24 11.55 2.14 11.64C2.05 11.74 2 11.86 2 12C2 12.13 2.05 12.25 2.14 12.35C2.24 12.44 2.36 12.5 2.5 12.5L4.5 12.5L4.5 14C4.5 14.13 4.55 14.25 4.64 14.35C4.74 14.44 4.86 14.5 5 14.5C5.13 14.5 5.25 14.44 5.35 14.35C5.44 14.25 5.5 14.13 5.5 14L5.5 12.5L7.5 12.5C7.63 12.5 7.75 12.44 7.85 12.35C7.94 12.25 8 12.13 8 12C8 11.86 7.94 11.74 7.85 11.64C7.75 11.55 7.63 11.5 7.5 11.5L5.5 11.5L5.5 9.97C6.73 9.84 7.87 9.27 8.7 8.35C9.53 7.43 9.99 6.23 10 5ZM1 5C1 4.2 1.23 3.43 1.67 2.77C2.11 2.11 2.73 1.6 3.46 1.3C4.2 1 5 0.92 5.78 1.07C6.55 1.23 7.26 1.61 7.82 2.17C8.38 2.73 8.76 3.44 8.92 4.21C9.07 4.99 8.99 5.79 8.69 6.53C8.39 7.26 7.87 7.88 7.22 8.32C6.56 8.76 5.79 9 5 9C3.93 8.99 2.92 8.57 2.17 7.82C1.42 7.07 1 6.06 1 5Z" fill="#87FF7B" fill-opacity="1.000000" fill-rule="nonzero"/>
</svg>
